<?xml version="1.0" encoding="UTF-8" standalone="no"?>
<!-- Created with Inkscape (http://www.inkscape.org/) -->

<svg
   xmlns:dc="http://purl.org/dc/elements/1.1/"
   xmlns:cc="http://creativecommons.org/ns#"
   xmlns:rdf="http://www.w3.org/1999/02/22-rdf-syntax-ns#"
   xmlns:svg="http://www.w3.org/2000/svg"
   xmlns="http://www.w3.org/2000/svg"
   xmlns:sodipodi="http://sodipodi.sourceforge.net/DTD/sodipodi-0.dtd"
   xmlns:inkscape="http://www.inkscape.org/namespaces/inkscape"
   width="210mm"
   height="297mm"
   viewBox="0 0 210 297"
   version="1.1"
   id="svg137"
   inkscape:version="0.92.3 (2405546, 2018-03-11)"
   sodipodi:docname="onion.svg">
  <defs
     id="defs131" />
  <sodipodi:namedview
     id="base"
     pagecolor="#ffffff"
     bordercolor="#666666"
     borderopacity="1.0"
     inkscape:pageopacity="0.0"
     inkscape:pageshadow="2"
     inkscape:zoom="0.35"
     inkscape:cx="400"
     inkscape:cy="560"
     inkscape:document-units="mm"
     inkscape:current-layer="layer1"
     showgrid="false"
     inkscape:window-width="1920"
     inkscape:window-height="1025"
     inkscape:window-x="0"
     inkscape:window-y="27"
     inkscape:window-maximized="1" />
  <metadata
     id="metadata134">
    <rdf:RDF>
      <cc:Work
         rdf:about="">
        <dc:format>image/svg+xml</dc:format>
        <dc:type
           rdf:resource="http://purl.org/dc/dcmitype/StillImage" />
        <dc:title></dc:title>
      </cc:Work>
    </rdf:RDF>
  </metadata>
  <g
     inkscape:label="Layer 1"
     inkscape:groupmode="layer"
     id="layer1">
    <path
       id="path54"
       d="m 116.12152,247.73779 c 0.98085,-1.93649 1.98661,-3.86476 3.05388,-5.75556 0.96141,-1.52326 2.07604,-2.9426 3.13835,-4.39558 0.70147,-1.05452 1.46049,-2.06069 2.29802,-3.01013 0.84034,-0.97635 1.75545,-1.87596 2.69813,-2.75214 1.11205,-0.81797 1.98511,-1.86744 2.82954,-2.94528 0.97662,-1.18861 2.02695,-2.30902 3.11825,-3.39198 1.65699,-1.66873 3.32862,-3.32271 4.99687,-4.98024 1.54919,-1.70163 3.03644,-3.45999 4.52154,-5.21776 1.76974,-2.0922 3.84922,-3.87645 5.95863,-5.61167 2.14896,-1.77421 4.45566,-3.33766 6.7483,-4.91645 3.92458,-2.89196 8.16184,-5.14451 12.41131,-7.56055 1.96933,-1.06721 4.09862,-1.74874 6.14279,-2.64251 1.78753,-0.60905 3.42931,-1.54885 5.13072,-2.3546 1.69459,-0.75485 3.3904,-1.48429 5.00418,-2.40483 -11.58777,6.79957 -6.24003,3.82959 -3.89321,1.92167 1.0377,-0.84361 0.84083,-0.70364 1.83619,-1.72213 2.27979,-2.82733 3.85941,-6.11982 5.39331,-9.38798 1.54668,-3.25956 2.65471,-6.70222 3.6782,-10.15468 0.79784,-2.52338 1.43558,-5.09621 1.89188,-7.70265 0.34176,-2.18689 0.48386,-4.39396 0.31829,-6.60099 -0.25628,-1.93033 -0.90148,-3.78023 -1.53304,-5.61347 -0.66852,-2.19872 -1.76371,-4.18935 -2.95269,-6.14006 -1.67959,-2.97983 -3.94367,-5.56376 -6.14889,-8.15838 -2.31962,-2.67239 -4.88189,-5.12972 -7.49009,-7.51773 -2.34589,-2.1573 -4.85369,-4.12787 -7.3673,-6.0838 -2.58617,-1.83557 -5.30992,-3.46796 -8.05642,-5.0497 -2.5632,-1.58268 -5.17485,-3.08623 -7.81635,-4.53418 -2.56894,-1.21744 -5.07495,-2.55952 -7.65609,-3.75195 -2.75246,-1.33201 -5.44944,-2.7372 -7.91317,-4.55445 -2.67567,-1.97932 -4.58635,-4.72218 -6.66383,-7.272651 -2.39483,-3.05829 -4.67448,-6.20139 -7.04771,-9.27646 -2.17903,-2.74889 -4.13809,-5.65637 -6.1687,-8.51294 -1.61227,-2.05959 -3.21557,-4.12291 -4.74862,-6.243 -1.42739,-2.13667 -2.42978,-4.50168 -3.35667,-6.88605 -0.97389,-2.64437 -1.71203,-5.3624 -2.51067,-8.0617 -0.67268,-2.5096 -1.21826,-5.052686 -1.61141,-7.620856 -0.21487,-1.531642 -0.31434,-3.073461 -0.36731,-4.617828 -0.009,-1.123575 0,-2.247214 0,-3.370818 0,-0.851365 -0.007,-1.702666 -0.007,-2.554024 0,-0.656522 -0.007,-1.313043 -0.007,-1.969551 -0.0754,-0.202831 0.11447,-0.585908 -0.0187,-0.773647 -0.094,-0.132427 -0.19141,0.55769 -0.0459,0.485046 2.26191,-1.13119 4.4136,-2.47063 6.6204,-3.705948 -0.15545,0.195856 -0.33724,0.373418 -0.46635,0.587567 -0.32346,0.536561 -0.76706,1.668368 -0.982,2.209924 -0.51329,1.293214 -0.9561,2.595276 -1.36087,3.925745 -0.61714,2.250645 -1.26765,4.484439 -2.021,6.693487 -0.70218,2.029456 -1.45818,4.039943 -2.19553,6.056832 -0.65266,1.530788 -1.06447,3.131062 -1.44283,4.744561 -0.3826,1.8499 -1.08485,3.60336 -1.82686,5.33275 -1.321905,2.79375 -2.460935,5.66025 -3.538255,8.55512 -1.01839,2.30986 -1.69588,4.73042 -2.35557,7.15873 -0.88548,3.35805 -1.95856,6.66326 -3.1891,9.90982 -0.87701,2.21089 -1.67715,4.45171 -2.56866,6.65671 -0.61311,1.58829 -1.59655,2.99485 -2.50837,4.421951 -0.876,1.27056 -1.84875,2.469 -2.83743,3.65242 -1.87537,1.92462 -3.82604,3.77632 -5.78832,5.61236 -1.71455,1.55894 -3.60822,2.90652 -5.49953,4.24007 -1.56197,1.1006 -3.16828,2.13732 -4.78773,3.15097 -2.353357,1.54172 -4.607526,3.22323 -6.853298,4.91562 -1.86375,1.41228 -3.697357,2.85066 -5.653257,4.1347 -2.523516,1.56599 -5.096623,3.05032 -7.630903,4.59919 -4.717758,3.06519 -9.796151,5.45348 -14.746582,8.0898 -2.119891,1.39213 -9.000098,4.84591 1.228385,-0.66441 0.604074,-0.32539 -1.169894,0.71711 -1.751145,1.08157 -0.633068,0.39695 -2.275628,1.45454 -2.93891,1.88067 -2.206084,1.39748 -4.40126,2.81774 -6.525744,4.33737 -1.160205,0.84554 -2.335195,1.67585 -3.401313,2.63996 -1.347449,1.43934 -1.41003,3.49878 -1.503975,5.35744 0.182937,4.47912 1.292618,8.88887 2.762862,13.10743 1.036406,2.81452 2.462082,5.43564 4.396739,7.72395 2.533204,2.59639 5.653759,4.4487 8.703838,6.35745 3.516501,2.21185 7.119985,4.28107 10.769257,6.26513 2.986493,1.76146 6.11688,3.19892 9.387216,4.33575 2.735734,0.86066 5.478214,1.70561 8.22091,2.54735 2.325219,0.47717 4.605656,1.11405 6.89937,1.72018 2.77477,0.61588 5.51058,1.3851 8.26813,2.06962 2.88688,0.71182 5.78531,1.34732 8.59619,2.3283 3.08144,0.99325 5.80447,2.76352 8.50059,4.5094 2.1318,1.36554 3.98507,3.09612 5.83067,4.81441 1.397185,1.34195 2.885305,2.58591 4.393155,3.80078 1.58435,1.38667 2.98713,2.94774 4.34061,4.5546 0.82986,1.14001 1.6788,2.26462 2.48857,3.41887 0.75478,1.00924 1.36905,2.11632 2.24491,3.02932 1.25573,1.29881 2.1463,2.87052 3.08022,4.40116 1.01021,1.53763 1.69997,3.26579 2.71994,4.79379 1.13818,1.30724 1.68505,2.83341 2.15736,4.47043 0.43269,1.32653 0.69242,2.69128 0.81945,4.07797 0.0632,0.78589 0.071,1.57393 0.081,2.36174 0,0 -7.20316,3.67091 -7.20316,3.67091 v 0 c 0.009,-0.77235 0.007,-1.54534 -0.0302,-2.317 -0.0885,-1.34231 -0.29755,-2.66831 -0.70088,-3.95574 -0.47023,-1.61062 -0.93895,-2.9606 -2.06557,-4.2514 -0.98853,-1.5586 -1.67851,-3.28857 -2.68872,-4.83744 -0.91031,-1.48516 -1.81402,-2.98654 -3.05137,-4.22986 -0.87565,-0.96138 -1.52838,-2.08439 -2.29766,-3.12862 -0.79562,-1.13628 -1.62964,-2.24353 -2.43137,-3.37569 -1.30022,-1.58292 -2.658585,-3.11753 -4.239785,-4.43075 -1.51962,-1.22998 -3.03379,-2.47453 -4.41683,-3.85921 -1.78452,-1.71115 -3.63514,-3.36324 -5.70888,-4.72156 -2.64179,-1.72728 -5.34092,-3.41435 -8.38275,-4.348 -2.81489,-0.91516 -5.70127,-1.54618 -8.56855,-2.27167 -2.7643,-0.70526 -5.524507,-1.41874 -8.305096,-2.05829 -2.296368,-0.62068 -4.608024,-1.16305 -6.911067,-1.75346 -2.730997,-0.87473 -5.484099,-1.67734 -8.199595,-2.59726 -3.282895,-1.18742 -6.41479,-2.69549 -9.428841,-4.46113 -3.637351,-2.01772 -7.229137,-4.11512 -10.753317,-6.32538 -3.142732,-1.93497 -6.350199,-3.83617 -8.944191,-6.50373 -1.977796,-2.38181 -3.4062,-5.11143 -4.450356,-8.02717 -1.463929,-4.30977 -2.547486,-8.7915 -2.936398,-13.33309 0,-1.99558 0,-4.09094 1.114848,-5.83038 0.953441,-1.12588 2.239743,-1.91766 3.414446,-2.7914 2.103169,-1.59738 4.363653,-2.98656 6.582082,-4.41568 5.556657,-3.54826 11.231947,-6.90066 16.989053,-10.11496 2.732002,-1.44814 13.462719,-7.11009 1.199893,-0.28284 2.518492,-1.54133 5.056217,-3.04768 7.59143,-4.56065 1.975206,-1.26957 3.852736,-2.65237 5.704644,-4.09464 2.232925,-1.68839 4.471234,-3.36746 6.778583,-4.95267 1.601508,-1.04671 3.251102,-2.02065 4.813138,-3.12866 1.906308,-1.30156 3.784344,-2.65587 5.553424,-4.13922 1.96086,-1.81228 3.88489,-3.65947 5.79802,-5.52168 1.01222,-1.13297 1.89934,-2.36692 2.84661,-3.55295 0.95904,-1.34607 1.87524,-2.77136 2.56974,-4.269561 0.92552,-2.22519 1.82923,-4.45905 2.70946,-6.70338 1.2543,-3.19481 2.32379,-6.4601 3.1469,-9.7939 0.63551,-2.46969 1.30546,-4.93085 2.37847,-7.25566 1.0781,-2.88977 2.14257,-5.7819 3.46964,-8.57017 0.73763,-1.67389 1.44311,-3.3851 1.81057,-5.18406 0.45163,-1.62177 0.73002,-3.29618 1.45258,-4.837018 0.7334,-2.016795 1.5024,-4.020623 2.20774,-6.046863 0.7677,-2.20452 1.46845,-4.421297 2.064495,-6.679055 0.71509,-2.401854 1.57811,-4.752673 2.52459,-7.073055 0.30343,-0.179292 8.15517,-7.485989 8.13923,-2.736947 0,0.658574 -0.007,1.317177 -0.007,1.975765 0,0.85532 -0.0115,1.710525 -0.0144,2.565838 -0.007,1.118177 -0.0158,2.23632 -0.007,3.354519 0,1.525255 0.0689,3.051005 0.24961,4.566471 0.33989,2.542792 0.87277,5.055499 1.52392,7.536341 0.79354,2.677896 1.52056,5.375514 2.47457,8.003514 0.91691,2.31449 1.9048,4.6116 3.2768,6.70021 1.53555,2.11992 3.13433,4.19016 4.72407,6.26918 1.99903,2.86218 3.91869,5.78137 6.09528,8.5161 2.37187,3.06823 4.64355,6.2102 7.05719,9.24601 2.04439,2.49766 3.95156,5.16117 6.59779,7.075361 2.44034,1.75932 5.10732,3.12983 7.81514,4.4323 2.59564,1.20522 5.14391,2.50752 7.70231,3.7894 2.6331,1.4689 5.24504,2.97751 7.81427,4.55587 2.76114,1.62038 5.51618,3.26519 8.11541,5.13845 2.52825,1.96522 5.02198,3.97951 7.37211,6.15717 2.6242,2.41723 5.21296,4.89486 7.54191,7.6012 2.22733,2.63077 4.50956,5.24446 6.25159,8.2349 1.2479,1.98512 2.39978,4.01203 3.08869,6.26967 0.64182,1.89896 1.33539,3.79838 1.63524,5.78886 0.17282,2.27011 0.072,4.53772 -0.26654,6.79168 -0.42883,2.64628 -1.05988,5.25844 -1.89024,7.80848 -1.03246,3.49263 -2.15822,6.97462 -3.6848,10.28679 -1.52752,3.30187 -3.07721,6.60861 -5.21389,9.57377 -3.11482,3.61828 -7.29632,5.65153 -11.51464,7.90296 -1.64608,0.86354 -3.35711,1.57878 -5.03613,2.3741 -1.69086,0.81557 -3.35746,1.68319 -5.13272,2.3088 -2.06319,0.84014 -4.14856,1.62704 -6.10891,2.69828 1.98023,-1.15468 3.96627,-2.29946 5.94062,-3.46406 0.29202,-0.17224 -0.60444,0.3089 -0.89302,0.48675 -1.31235,0.80864 -2.47995,1.84605 -3.81642,2.62078 -2.28897,1.57775 -4.6124,3.10819 -6.77729,4.85652 -2.09922,1.71538 -4.21071,3.42887 -6.00621,5.47332 -1.4818,1.76128 -2.9725,3.5139 -4.46578,5.26559 -1.64622,1.67374 -3.35703,3.28415 -4.98947,4.97149 -1.0461,1.09392 -2.1247,2.15134 -3.11819,3.29476 -0.85045,1.08523 -1.62921,2.2625 -2.75282,3.09001 -1.01207,0.78079 -1.89095,1.7135 -2.74348,2.65673 -0.85548,0.91835 -1.66739,1.87057 -2.35041,2.9274 -1.01681,1.482 -2.18226,2.85915 -3.19634,4.34394 -1.1048,1.83344 -2.07195,3.75079 -3.04599,5.65528 0,0 -7.32036,3.35207 -7.32036,3.35207 z"
       inkscape:connector-curvature="0"
       style="stroke-width:0.18988682" />
    <text
       xml:space="preserve"
       style="font-style:normal;font-weight:normal;font-size:7.59547329px;line-height:1.25;font-family:sans-serif;letter-spacing:0px;word-spacing:0px;fill:#000000;fill-opacity:1;stroke:none;stroke-width:0.18988682"
       x="52.24786"
       y="271.05981"
       id="text66"><tspan
         sodipodi:role="line"
         id="tspan64"
         x="52.24786"
         y="271.05981"
         style="stroke-width:0.18988682">Testing Onion</tspan></text>
  </g>
</svg>
