<?xml version="1.0" encoding="UTF-8" standalone="no"?>
<!-- Created with Inkscape (http://www.inkscape.org/) -->

<svg
   xmlns:dc="http://purl.org/dc/elements/1.1/"
   xmlns:cc="http://creativecommons.org/ns#"
   xmlns:rdf="http://www.w3.org/1999/02/22-rdf-syntax-ns#"
   xmlns:svg="http://www.w3.org/2000/svg"
   xmlns="http://www.w3.org/2000/svg"
   xmlns:sodipodi="http://sodipodi.sourceforge.net/DTD/sodipodi-0.dtd"
   xmlns:inkscape="http://www.inkscape.org/namespaces/inkscape"
   width="210mm"
   height="297mm"
   viewBox="0 0 210 297"
   version="1.1"
   id="svg185"
   inkscape:version="0.92.3 (2405546, 2018-03-11)"
   sodipodi:docname="spinningtop.svg">
  <defs
     id="defs179" />
  <sodipodi:namedview
     id="base"
     pagecolor="#ffffff"
     bordercolor="#666666"
     borderopacity="1.0"
     inkscape:pageopacity="0.0"
     inkscape:pageshadow="2"
     inkscape:zoom="0.35"
     inkscape:cx="400"
     inkscape:cy="560"
     inkscape:document-units="mm"
     inkscape:current-layer="layer1"
     showgrid="false"
     inkscape:window-width="1920"
     inkscape:window-height="1025"
     inkscape:window-x="0"
     inkscape:window-y="27"
     inkscape:window-maximized="1" />
  <metadata
     id="metadata182">
    <rdf:RDF>
      <cc:Work
         rdf:about="">
        <dc:format>image/svg+xml</dc:format>
        <dc:type
           rdf:resource="http://purl.org/dc/dcmitype/StillImage" />
        <dc:title></dc:title>
      </cc:Work>
    </rdf:RDF>
  </metadata>
  <g
     inkscape:label="Layer 1"
     inkscape:groupmode="layer"
     id="layer1">
    <path
       id="path58"
       d="m 107.5264,251.49322 c 0.30031,-1.94431 0.82079,-3.84246 1.23588,-5.76313 0.22626,-1.03987 0.34577,-2.0955 0.39738,-3.1569 -0.027,-0.92377 0.0488,-1.80995 0.29138,-2.70155 0.32461,-1.2752 1.00887,-2.39154 1.68098,-3.50588 0.91907,-1.37521 1.67587,-2.84566 2.55638,-4.24399 0.73362,-1.18244 1.31428,-2.44953 2.00724,-3.65385 0.8679,-1.28799 1.82148,-2.51254 2.6248,-3.84348 0.74562,-1.39682 1.46822,-2.80512 2.30769,-4.14865 1.04098,-1.71138 2.33118,-3.23727 3.67073,-4.71812 1.59831,-1.70377 3.41965,-3.1725 5.25869,-4.60466 4.26894,-3.12257 8.96662,-5.11416 13.69079,-7.28752 2.13725,-1.01602 4.21005,-2.1337 6.39081,-3.05623 2.27356,-1.04814 4.66505,-1.79397 6.98039,-2.73488 2.03282,-0.72114 4.04899,-1.49283 6.01991,-2.37009 1.9635,-0.96509 4.03323,-1.67409 6.09801,-2.38287 1.83387,-0.84887 3.80187,-1.27813 5.74999,-1.76784 1.64617,-0.48412 3.20967,-1.20154 4.84405,-1.72276 1.67437,-0.48386 3.2696,-1.12997 4.82927,-1.90282 0.28815,-0.13101 0.57945,-0.25528 0.86445,-0.39303 0.15379,-0.0743 1.49223,-0.76931 1.63236,-0.84721 0.26918,-0.1497 1.06296,-0.62272 0.79589,-0.46926 -1.67692,0.96374 -17.7694,10.24992 1.70986,-0.98923 -12.19917,7.58145 -4.99004,2.77745 -2.37484,0.5995 1.21383,-1.06518 2.32563,-2.24112 3.48379,-3.36642 1.00024,-0.93442 1.92254,-1.94519 2.87049,-2.93132 1.45367,-1.49844 2.7194,-3.13292 3.82865,-4.89785 0.92822,-1.31063 1.66095,-2.71728 2.28406,-4.19188 0.4418,-1.12492 0.56453,-2.33092 0.63032,-3.52738 0.0398,-0.77387 0.0308,-1.54912 0.0315,-2.32374 -0.0836,-0.91186 0.14156,-1.79042 0.30683,-2.67796 0.18553,-1.06908 0.22191,-2.15515 0.24832,-3.23744 0.0217,-1.59136 0.0405,-3.18269 0.0465,-4.77424 0.0218,-2.09529 0.0172,-4.18541 -0.14891,-6.27446 -0.18455,-2.01001 -0.31194,-4.02414 -0.39469,-6.04073 0.0398,-1.54256 -0.44471,-3.01557 -0.764,-4.50743 -0.28867,-1.05003 -0.29385,-2.14351 -0.45912,-3.21144 -0.20308,-0.61586 -0.15649,-1.39223 -0.78486,-1.72713 -1.16634,-0.28532 -2.40102,-0.23366 -3.59572,-0.25059 -1.60287,-0.008 -3.20583,0.006 -4.8087,0.0126 -1.73687,0.003 -3.47374,-0.003 -5.21068,-1.9e-4 -1.26739,0.009 -2.53485,0.0152 -3.80232,0.0142 -1.61083,-0.009 -3.22173,-0.016 -4.83264,-0.0131 -1.601,0.007 -3.20201,0.006 -4.80294,0.002 -1.57287,1.4e-4 -3.14559,0.004 -4.71838,0.005 -1.61098,-0.002 -3.22197,-0.002 -4.83287,-0.007 -1.36702,0.006 -2.73411,0.01 -4.1012,0.0117 -1.23813,-0.004 -2.47626,-0.004 -3.71439,0.001 -0.85051,-0.002 -1.70094,0.009 -2.55144,0.008 -0.97503,-0.001 -1.94999,-0.01 -2.92503,-0.008 -0.91367,0.002 -1.82727,0.006 -2.74093,0.007 -1.38292,0.0663 -2.74506,-0.1613 -4.11478,-0.31323 -1.29942,-0.24243 -2.66914,-0.0459 -3.94831,-0.3683 -0.96288,-0.23202 -1.92261,-0.41083 -2.80943,-0.86779 -0.85845,-0.38107 -1.72403,-0.76641 -2.48196,-1.32809 -0.95065,-0.79198 -1.79185,-1.73391 -2.6107,-2.66519 -1.46364,-2.06012 -2.429,-4.40703 -3.37358,-6.73492 -1.13288,-2.63052 -1.84602,-5.41358 -2.88647,-8.07762 -0.77263,-2.02975 -1.49823,-4.07653 -2.19104,-6.13476 -0.59618,-1.76197 -1.1247,-3.54345 -1.72913,-5.30289 -1.05494,-3.145039 -1.64444,-6.412109 -2.38669,-9.637679 -0.74233,-3.46923 -1.48968,-6.93748 -2.25721,-10.40114 -0.47555,-3.09335 -1.45194,-6.05232 -2.37828,-9.027414 -0.88352,-2.543519 -1.54647,-5.16208 -2.54071,-7.665267 -1.13168,-2.670978 -2.56449,-5.195209 -3.93293,-7.74869 -1.75352,-3.555697 -3.1702,-7.273602 -4.3994,-11.039843 -1.04938,-3.181219 -1.998608,-6.394764 -3.045368,-9.576516 -0.72064,-2.20439 -1.54391,-4.36259 -2.4293,-6.504414 -1.38412,-3.799527 -0.87931,-3.32582 6.597638,-4.839643 0.49934,-0.101082 -0.27532,0.98115 -0.39423,1.476478 -0.15011,0.625142 -0.2751,1.256054 -0.41261,1.884084 -0.9616,4.813026 -1.20482,9.724681 -1.37076,14.617596 0.0232,4.960906 -0.312688,9.901293 -0.781708,14.836535 -0.44495,4.640067 -0.79237,9.290157 -1.2917,13.924867 -0.32011,3.792401 -1.08802,7.508487 -2.12772,11.162537 -0.80309,2.66131 -1.7821,5.26411 -2.63921,7.90734 -0.561,2.6028 -1.60783,5.0507 -2.56081,7.52589 -1.78367,4.116129 -3.05594,8.419599 -4.512,12.654989 -0.81165,2.24648 -1.31263,4.5828 -2.29907,6.76325 -0.33624,0.79618 -0.97534,1.29283 -1.63086,1.80791 -3.13426,2.25829 -6.67506,3.80532 -10.00843,5.70378 -0.851395,0.45221 -1.666421,0.84521 -2.607173,1.06809 -0.830622,0.12033 -1.672423,0.10606 -2.509497,0.10567 -0.65575,0.25536 -1.332206,0.44634 -2.032969,0.51551 -0.822063,0.0727 -1.651267,0.0411 -2.475738,0.0352 -2.090352,-0.0122 -4.180644,-0.0216 -6.270929,-0.0339 -3.666824,-0.0183 -7.333738,-0.0271 -11.00057,-0.0203 -3.243718,-0.01 -6.487361,0.0123 -9.73093,0.0266 -1.562293,0.005 -3.124436,0.0219 -4.686654,0.0274 -1.194395,0.001 -2.38864,-0.006 -3.583035,-0.004 -0.948178,3.9e-4 -1.896357,0.0101 -2.844536,0.009 -0.896715,-0.004 -1.793505,-7.5e-4 -2.690295,-10e-4 -0.766856,0.004 -1.533711,5.9e-4 -2.300641,0.005 -1.254036,0.47494 -2.49997,0.97737 -3.740577,1.48908 -1.068061,0.59875 -2.180684,1.03771 -3.377929,1.27651 -0.474577,-0.01 -0.78456,0.15994 -1.14068,0.44365 2.310168,-1.32528 4.61501,-2.66008 6.930655,-3.97582 0.120932,-0.0687 -0.243365,0.1397 -0.345467,0.23415 -0.137662,0.12728 -0.245241,0.28363 -0.367824,0.42545 -1.141881,1.82524 -1.737615,3.93108 -2.476488,5.94043 -0.472326,1.28157 -0.861831,2.58811 -1.024324,3.9459 -0.02326,0.86334 -0.297155,1.68396 -0.455147,2.52537 -0.11388,0.68663 -0.141938,1.38193 -0.161293,2.07624 -0.0075,0.78631 -0.03676,1.57103 0.02476,2.35551 0.488681,1.79942 0.687635,3.64608 0.930249,5.48859 0.517564,3.48799 1.195596,6.94903 1.846695,10.41373 0.54127,3.18589 1.441436,6.28432 2.309493,9.39089 0.65485,2.30533 1.424782,4.57615 2.323822,6.79727 0.816744,1.98592 1.951573,3.81232 2.937037,5.71573 0.909318,2.00223 2.357956,3.63747 3.851906,5.2177 1.787803,1.84653 3.943806,3.18626 6.242046,4.29028 2.368384,1.20345 4.927244,1.92802 7.439749,2.75907 2.652403,0.75098 5.34098,1.36937 8.007486,2.06978 2.825039,0.60209 5.574518,1.49178 8.360013,2.24392 2.695097,0.81864 5.426653,1.50974 8.125733,2.31372 2.046248,0.57382 4.038856,1.32583 6.036484,2.05017 2.274528,0.91498 4.467148,2.00986 6.617598,3.18269 2.50522,1.51577 4.94359,3.13581 7.37694,4.76289 2.33718,1.49054 4.55297,3.1433 6.63936,4.96614 2.06838,1.96943 4.15408,3.91693 6.26515,5.84088 1.516678,1.34427 2.957968,2.76683 4.421458,4.16793 1.47377,1.35638 2.82638,2.83158 4.22333,4.26361 1.44856,1.49909 2.78099,3.09427 4.08529,4.71768 0.97894,1.33302 1.94985,2.66154 2.7089,4.13382 1.06896,2.11621 2.06388,4.26649 3.03599,6.42832 0.84608,1.90285 1.50415,3.85481 1.92562,5.89237 0.26212,1.15624 0.22663,2.34674 0.35889,3.51674 0,0 -7.46262,3.94642 -7.46262,3.94642 v 0 c -0.21478,-1.1552 -0.0533,-2.35466 -0.30136,-3.51243 -0.34764,-1.99315 -0.97856,-3.88913 -1.79117,-5.74263 -0.96589,-2.1471 -1.92352,-4.29778 -3.04207,-6.37168 -0.73955,-1.41976 -1.71751,-2.6801 -2.63493,-3.98809 -1.27189,-1.61083 -2.56329,-3.20265 -4.0069,-4.6664 -1.394468,-1.42695 -2.776638,-2.86445 -4.249658,-4.21249 -1.45892,-1.38627 -2.82106,-2.86924 -4.33256,-4.20053 -2.10792,-1.92117 -4.18867,-3.86963 -6.28001,-5.8082 -2.06898,-1.78554 -4.24591,-3.43297 -6.55787,-4.89479 -2.41235,-1.61956 -4.84255,-3.2156 -7.349647,-4.68606 -2.132438,-1.13853 -4.316198,-2.18587 -6.571459,-3.06033 -1.992826,-0.69619 -3.970138,-1.44177 -6.001374,-2.02002 -2.68722,-0.79458 -5.389976,-1.53588 -8.078988,-2.32451 -2.783703,-0.77386 -5.558313,-1.58011 -8.377426,-2.2191 -2.678442,-0.69132 -5.376089,-1.3188 -8.023697,-2.12157 -2.552259,-0.8312 -5.137601,-1.59355 -7.527966,-2.84025 -2.355781,-1.18555 -4.553119,-2.63509 -6.398913,-4.54015 -1.557342,-1.63104 -3.050467,-3.33451 -4.001871,-5.40528 -0.987115,-1.93076 -2.129745,-3.78034 -2.957967,-5.78901 -0.921247,-2.2509 -1.685852,-4.55902 -2.340177,-6.90162 -0.843676,-3.14238 -1.7586961,-6.26657 -2.2789601,-9.48505 -0.644722,-3.46777 -1.338808,-6.92629 -1.957199,-10.39894 -0.268122,-1.83239 -0.423113,-3.68912 -1.009245,-5.45897 -0.135036,-0.81033 -0.11238,-1.6279 -0.107279,-2.44858 0.0075,-0.72998 0.02926,-1.46166 0.124008,-2.18619 0.105329,-0.85131 0.399107,-1.64897 0.476378,-2.49708 0.151541,-1.43492 0.479603,-2.8195 1.012096,-4.16594 0.760254,-2.04143 1.42118,-4.12387 2.323747,-6.10687 1.8422681,-3.25182 5.7695701,-4.90457 9.3670081,-5.61339 1.137379,-0.32241 2.175882,-0.88768 3.261123,-1.34658 1.282468,-0.51352 2.592469,-1.19193 3.987392,-1.26771 0.76273,0.004 1.525534,7.5e-4 2.288263,0.005 0.89829,-7.5e-4 1.796656,0.003 2.695021,-10e-4 0.939927,-7.5e-4 1.879779,0.008 2.819705,0.009 1.197696,0.002 2.395399,-0.005 3.593087,-0.004 1.537162,0.005 3.074173,0.0228 4.611335,0.0274 3.219186,0.0143 6.438306,0.0365 9.657568,0.0268 3.684236,0.007 7.368397,-10e-4 11.052551,-0.0171 2.1182,-0.0105 4.236384,-0.014 6.354501,-0.0325 0.8118,-0.014 1.630862,-0.008 2.430501,-0.16825 0.692134,-0.16455 1.378124,-0.41442 2.097104,-0.40286 0.79904,-0.0188 1.61091,-0.0347 2.37627,-0.2925 0.86828,-0.3036 1.65254,-0.79693 2.47506,-1.20298 0.49896,-0.26795 1.00302,-0.52494 1.50062,-0.79544 0.1595,-0.0867 0.63565,-0.35085 0.47886,-0.25938 -7.28505,4.24988 -8.980046,5.34186 -6.41662,3.70201 0.68898,-0.32623 1.32906,-0.83616 1.84617,-1.39266 1.15793,-2.13276 1.68885,-4.47456 2.50679,-6.74823 1.53537,-4.21096 2.73404,-8.54228 4.50091,-12.66811 0.90204,-2.444779 1.95832,-4.853549 2.4386,-7.427819 0.87834,-2.66653 1.96703,-5.26131 2.78842,-7.94831 1.07752,-3.60341 1.83507,-7.28139 2.17521,-11.032652 0.59041,-4.637111 0.95328,-9.30048 1.39162,-13.953548 0.46085,-4.918459 0.79874,-9.8428 0.78899,-14.785903 0.17375,-4.917319 0.38613,-9.848592 1.23761,-14.704927 0.11928,-0.625975 0.23864,-1.25192 0.35777,-1.877925 0.0963,-0.506228 -0.12071,-1.20546 0.28845,-1.518767 9.325818,-7.141657 6.879568,-6.972171 8.311248,-2.809254 0.83872,2.182244 1.66935,4.363115 2.38616,6.589801 1.03138,3.193583 1.94535,6.424435 2.97065,9.620321 1.18907,3.725235 2.61835,7.382539 4.38462,10.874416 1.40198,2.570458 2.84732,5.123767 4.00383,7.817393 1.02057,2.518379 1.68817,5.158516 2.56831,7.727766 0.92215,3.00457 1.90461,5.990752 2.36118,9.115259 0.75553,3.46174 1.54481,6.91542 2.27371,10.38297 0.7352,3.19003 1.26296,6.43822 2.40709,9.51931 0.63655,1.75404 1.20047,3.52917 1.7458,5.313189 0.66602,2.05478 1.41337,4.07988 2.15945,6.1066 1.01074,2.67281 1.67947,5.46685 2.8227,8.09221 0.92425,2.23351 1.86733,4.49159 3.34643,6.42643 0.779,0.87461 1.56506,1.77843 2.51204,2.4722 0.77459,0.45799 1.57685,0.85935 2.40605,1.2094 0.87256,0.32735 1.78548,0.50477 2.69532,0.69728 1.28862,0.12939 2.58572,0.17828 3.87066,0.35049 1.36904,0.14977 2.73463,0.26771 4.1135,0.20042 0.90744,6e-4 1.81496,0.005 2.7224,0.007 0.98239,0.001 1.96486,-0.007 2.94724,-0.008 0.84368,-0.001 1.68728,0.01 2.53088,0.008 1.23648,0.005 2.47289,0.006 3.70937,0.001 1.35629,0.001 2.71258,0.006 4.06886,0.0117 1.61691,-0.004 3.23382,-0.004 4.85073,-0.007 1.56799,0.001 3.13599,0.005 4.70398,0.005 1.59973,-0.005 3.19953,-0.005 4.79926,0.001 1.62292,0.003 3.24567,-0.005 4.86843,-0.0129 1.25464,-7.5e-4 2.50927,0.005 3.76391,0.0133 1.74226,0.001 3.48446,-0.007 5.22672,-0.0145 1.60161,-0.005 3.20336,-0.0122 4.80489,0.0117 1.32568,0.0272 2.78482,-0.0718 3.95266,0.65471 0.6898,0.63024 0.88988,1.37364 1.08464,2.26411 0.236,1.05596 0.13557,2.1663 0.41635,3.2215 0.30745,1.54088 0.85831,3.05253 0.82253,4.63927 0.0488,2.00844 0.14524,4.01573 0.34391,6.01557 0.2011,2.11208 0.21446,4.21847 0.17943,6.34015 0.008,1.58552 0.042,3.17116 0.0255,4.75657 -0.0173,1.11663 -0.0398,2.23618 -0.18605,3.34488 -0.12896,0.85282 -0.41576,1.67624 -0.36086,2.54289 0.008,0.79165 0.0194,1.58374 -0.0105,2.37508 -0.0831,1.27229 -0.17598,2.55345 -0.53609,3.78358 -0.58846,1.53622 -1.28494,3.02538 -2.28526,4.34394 -1.06476,1.80364 -2.2557,3.5044 -3.71477,5.0163 -0.88269,1.05611 -1.89523,2.00305 -2.85391,2.98955 -1.17137,1.1278 -2.3263,2.27085 -3.47111,3.42068 -3.63202,3.13331 -7.56817,5.63045 -11.91341,7.815 2.09291,-1.20898 8.37292,-4.83387 6.2788,-3.62694 -3.73562,2.15303 -7.38962,4.49515 -11.32533,6.2802 -1.5935,0.73615 -3.24237,1.30689 -4.91374,1.83995 -1.61601,0.57519 -3.20411,1.24413 -4.87135,1.66304 -1.92712,0.49542 -3.84006,1.01598 -5.6758,1.79931 -2.06395,0.71873 -4.09842,1.51456 -6.07655,2.44684 -1.9818,0.83577 -3.99737,1.58805 -6.01556,2.33052 -2.33575,0.88944 -4.69378,1.72226 -6.96989,2.76151 -2.15585,0.95104 -4.21193,2.10051 -6.36335,3.06202 -3.10869,1.44941 -12.46632,6.00006 0.59956,-0.99255 -1.8638,1.38061 -3.67486,2.84438 -5.33055,4.47121 -1.32824,1.43657 -2.65181,2.89352 -3.67321,4.57214 -0.88959,1.29794 -1.62944,2.69128 -2.32863,4.09958 -0.73564,1.37983 -1.67302,2.62293 -2.59329,3.88317 -0.81997,1.12588 -1.29672,2.45772 -2.01849,3.64788 -0.88254,1.39954 -1.6884,2.83026 -2.55729,4.23843 -0.66963,1.0464 -1.38569,2.10452 -1.74669,3.30108 -0.29468,0.82411 -0.44509,1.61421 -0.37277,2.49406 -0.033,1.11472 -0.14899,2.22241 -0.38403,3.31425 -0.41179,1.89261 -0.96356,3.75344 -1.24691,5.67221 0,0 -7.54717,3.74087 -7.54717,3.74087 z"
       inkscape:connector-curvature="0"
       style="stroke-width:0.19849063" />
    <text
       xml:space="preserve"
       style="font-style:normal;font-weight:normal;font-size:7.93962526px;line-height:1.25;font-family:sans-serif;letter-spacing:0px;word-spacing:0px;fill:#000000;fill-opacity:1;stroke:none;stroke-width:0.19849063"
       x="67.564186"
       y="279.15625"
       id="text70"><tspan
         sodipodi:role="line"
         id="tspan68"
         x="67.564186"
         y="279.15625"
         style="stroke-width:0.19849063">Testing Spinning Top</tspan></text>
  </g>
</svg>
