<?xml version="1.0" encoding="UTF-8" standalone="no"?>
<!-- Created with Inkscape (http://www.inkscape.org/) -->

<svg
   xmlns:dc="http://purl.org/dc/elements/1.1/"
   xmlns:cc="http://creativecommons.org/ns#"
   xmlns:rdf="http://www.w3.org/1999/02/22-rdf-syntax-ns#"
   xmlns:svg="http://www.w3.org/2000/svg"
   xmlns="http://www.w3.org/2000/svg"
   xmlns:sodipodi="http://sodipodi.sourceforge.net/DTD/sodipodi-0.dtd"
   xmlns:inkscape="http://www.inkscape.org/namespaces/inkscape"
   width="2000px"
   height="1500px"
   viewBox="0 0 2000 1500"
   version="1.1"
   id="SVGRoot"
   sodipodi:docname="teardrop.svg"
   inkscape:version="0.92.3 (2405546, 2018-03-11)">
  <sodipodi:namedview
     id="base"
     pagecolor="#ffffff"
     bordercolor="#666666"
     borderopacity="1.0"
     inkscape:pageopacity="0.0"
     inkscape:pageshadow="2"
     inkscape:zoom="0.256"
     inkscape:cx="1000"
     inkscape:cy="750"
     inkscape:document-units="px"
     inkscape:current-layer="layer1"
     showgrid="false"
     inkscape:window-width="1920"
     inkscape:window-height="1025"
     inkscape:window-x="0"
     inkscape:window-y="27"
     inkscape:window-maximized="1" />
  <defs
     id="defs444" />
  <metadata
     id="metadata447">
    <rdf:RDF>
      <cc:Work
         rdf:about="">
        <dc:format>image/svg+xml</dc:format>
        <dc:type
           rdf:resource="http://purl.org/dc/dcmitype/StillImage" />
      </cc:Work>
    </rdf:RDF>
  </metadata>
  <g
     id="layer1"
     inkscape:groupmode="layer"
     inkscape:label="Layer 1">
    <path
       id="path507"
       d="m 903.0164,144.72201 c -16.30601,28.51034 -32.04679,57.33803 -48.21081,85.92751 -19.05103,33.29022 -37.23448,67.06793 -55.51248,100.78701 -19.41094,36.80491 -37.52611,74.26824 -56.11713,111.48922 -14.6165,31.37466 -32.01936,61.24386 -49.41739,91.10969 -10.74408,18.5908 -21.55586,37.14327 -32.58749,55.56513 -12.19013,19.54233 -23.82934,39.41632 -35.63138,59.19187 -13.56664,21.78271 -24.06294,45.2176 -34.23243,68.71945 -11.51635,26.80116 -22.3288,53.91608 -32.06857,81.41405 -6.54457,19.18223 -12.58824,38.53036 -18.5852,57.88927 -4.53587,17.06912 -7.34782,34.5595 -9.26388,52.10169 -2.43279,18.24427 -1.29994,36.37285 0.65071,54.5696 3.94496,26.51277 10.16075,52.5698 18.52247,78.0212 7.51145,21.0831 19.26861,40.2888 30.83807,59.3353 9.22227,15.7974 22.51828,28.1261 36.12945,40.0374 14.98126,14.1629 32.39903,25.1751 49.32367,36.7849 20.54953,12.3838 42.91085,21.0976 66.25464,26.358 26.31989,4.293 53.02715,5.9393 79.61683,7.7907 18.08502,0.7106 36.09118,2.8693 53.64076,7.3198 13.45276,3.8573 26.0707,9.867 38.84904,15.4425 11.22933,4.6654 20.40735,12.054 28.75866,20.7032 9.54526,9.9782 16.15213,22.4237 21.86581,34.8903 3.95834,8.8934 6.19672,18.2234 7.29595,27.8482 0.0788,1.087 0.17616,2.1728 0.23627,3.2609 0.009,0.1616 0.35835,10.1557 0.22612,7.9543 -0.19055,-0.89 -0.77249,-1.7822 -0.57166,-2.6699 0.12445,-0.5501 0.92864,-0.6402 1.39296,-0.9602 -16.09465,9.1609 -32.13029,18.4263 -48.28395,27.4828 -0.85615,0.4799 1.6516,-1.0778 2.37315,-1.7432 0.91347,-0.8424 4.21716,-4.7882 4.95391,-5.6545 6.32444,-9.264 12.02287,-18.9349 17.46432,-28.7375 4.81669,-8.7321 10.46622,-16.9255 16.28009,-25.0082 6.49308,-9.4705 15.98503,-16.119 25.03983,-22.928 25.99816,-17.6178 53.85506,-32.2893 81.54796,-47.0271 12.3978,-7.5216 26.8079,-9.2497 40.745,-11.9438 16.485,-4.306 33.3664,-6.2034 50.32,-7.3131 15.9086,-0.9106 31.8525,-0.9233 47.7821,-0.9982 12.2943,-0.9516 24.4501,-2.5116 36.5653,-4.712 8.0309,-1.5781 15.4127,-5.108 22.5244,-9.0424 2.1349,-1.1811 8.4492,-4.8844 6.3267,-3.681 -14.0626,7.9733 -28.0982,15.9939 -42.1473,23.9909 18.461,-11.9329 33.0827,-28.414 46.6097,-45.5028 15.6498,-20.5881 26.8939,-43.7078 36.5758,-67.5422 8.302,-19.9771 11.088,-41.2084 12.5202,-62.5974 2.0124,-22.9606 -0.4268,-45.76187 -3.5603,-68.48028 -4.5317,-32.29064 -11.6808,-64.0707 -20.0937,-95.54513 -7.9646,-33.92305 -21.1231,-65.95135 -36.1954,-97.23065 -14.8088,-29.89117 -30.4855,-59.35689 -46.7729,-88.46682 -18.2724,-33.2524 -35.1166,-67.26307 -52.3061,-101.08071 -16.5265,-32.464 -33.6288,-64.67705 -54.8506,-94.34147 -15.7835,-20.02372 -30.9291,-40.55649 -47.1542,-60.23139 -16.8218,-18.90463 -32.4253,-38.83102 -47.9364,-58.8101 -16.56442,-21.07995 -32.9734,-42.28767 -49.1841,-63.64184 -14.64931,-20.35165 -30.64199,-39.67676 -45.78301,-59.65368 -9.32235,-11.2334 -17.62588,-23.23988 -26.67906,-34.68573 -6.49974,-8.80191 -13.91676,-16.73443 -21.15262,-24.89769 -5.47999,-6.7433 -11.31153,-13.1856 -16.77941,-19.932 -3.32601,-4.29549 -6.92249,-8.34944 -10.04394,-12.79598 0,0 50.06048,-29.48956 50.06048,-29.48956 v 0 c 3.0298,4.33459 6.49534,8.31544 9.78108,12.45687 5.46403,6.64675 11.07202,13.16766 16.5923,19.76989 7.29784,8.24124 14.47295,16.50512 21.08858,25.32417 9.03093,11.49734 17.29758,23.55989 26.32326,35.06145 14.89648,20.12057 30.5802,39.64144 45.32414,59.87713 16.2466,21.30879 32.7786,42.39992 49.259,63.52755 15.521,19.92938 31.1651,39.77372 48.0832,58.5503 16.1867,19.84721 31.1842,40.61937 46.7869,60.92196 21.0346,30.11005 38.1592,62.62134 54.9038,95.26515 17.0236,33.80752 34.0247,67.64547 52.4481,100.71943 16.4343,29.16368 32.0912,58.77339 46.9798,88.75652 15.2088,31.60974 28.469,63.97534 36.5013,98.24654 8.6458,31.55384 16.0465,63.4231 21.1537,95.75935 3.4213,23.00429 6.0823,46.12694 4.2583,69.42412 -1.2039,21.9286 -3.5607,43.7673 -11.9008,64.3237 -9.5665,24.2633 -20.6437,47.8101 -36.0439,69.017 -13.0673,17.4887 -27.3607,34.3239 -45.2689,47.0762 -18.7353,11.0101 -37.4243,22.0995 -56.206,33.0304 -9.3782,5.458 -19.4775,9.5518 -30.211,11.3477 -12.2288,2.1154 -24.6249,3.2688 -37.0204,3.8083 -15.7866,0.012 -31.5861,0.1011 -47.3429,1.1825 -16.8913,1.3903 -33.5962,3.9295 -50.0748,7.9644 -13.8984,2.6584 -27.6141,5.8461 -39.841,13.361 -18.2804,9.3173 -46.37751,26.1173 33.0011,-19.9634 16.2955,-9.4599 -32.2727,18.8746 -15.8541,9.5808 -8.9476,6.353 -18.4109,12.72 -25.4615,21.1819 -5.9314,7.9287 -11.7183,15.9072 -16.76398,24.4482 -5.53841,9.7947 -10.96307,19.6406 -16.99876,29.146 -12.2909,21.4976 -33.48214,25.2183 -58.12999,39.1417 -0.57898,0.3271 -1.33474,0.6095 -1.95855,0.3792 -1.0926,-0.4034 -1.84854,-1.4174 -2.77281,-2.1261 -3.25545,-4.5158 -1.87254,-9.7138 -2.23624,-15.0425 -0.61463,-9.0835 -2.40516,-17.9291 -5.98058,-26.3569 -5.35557,-11.9345 -11.6215,-23.7455 -20.93561,-33.097 -7.99462,-8.0301 -16.97205,-14.5659 -27.53614,-18.8958 -12.42628,-5.6119 -24.92015,-11.214 -38.16686,-14.6446 -17.27797,-3.9564 -34.85704,-6.1016 -52.5662,-6.9363 -26.71807,-2.1176 -53.59898,-3.6894 -79.97436,-8.6248 -23.87241,-5.8146 -46.80885,-14.9506 -67.77181,-27.9015 -17.05543,-11.8128 -34.63719,-22.9674 -49.78911,-37.2761 -14.04234,-12.3157 -27.59573,-25.2471 -37.05313,-41.5785 -11.48143,-19.5999 -23.43515,-39.1713 -31.07056,-60.6694 -8.30775,-25.8279 -14.59295,-52.1785 -19.28849,-78.90405 -2.26345,-18.52208 -4.04189,-36.9271 -1.46736,-55.55959 1.80338,-17.86766 4.59335,-35.62658 8.77924,-53.09929 5.95005,-19.54948 12.44754,-38.93621 18.91886,-58.31879 9.83442,-27.64533 20.9126,-54.84185 32.26993,-81.89248 9.89763,-23.60524 19.98093,-47.25606 33.29857,-69.17361 12.03105,-19.70645 23.56465,-39.71858 35.86135,-59.26919 11.0261,-18.44824 21.54672,-37.19049 32.70287,-55.56226 17.69099,-29.96292 36.07922,-59.5513 50.64681,-91.24603 18.55874,-37.17337 36.6212,-74.59217 55.69495,-111.5059 18.31262,-33.75528 36.51243,-67.57764 55.56195,-100.92312 15.9462,-28.08437 31.5574,-56.3886 46.40496,-85.06851 0,0 52.89285,-23.65407 52.89285,-23.65407 z"
       inkscape:connector-curvature="0" />
  </g>
</svg>
